# xmcd
#
# Track frame offsets: 
#        150
#        5019
#        23837
#        42544
#        62758
#        77960
#        97986
#        114510
#        123935
#        144458
#        162224
#        178907
#        197301
#        217451
#        232528
#
# Disc length: 3207 seconds
#
# Revision: 0
# Processed by: cddbd v1.5.2PL0 Copyright (c) Steve Scherf et al.
# Submitted via: ExactAudioCopy v0.99pb4
#
DISCID=c90c850f
DTITLE=노블레스 - Last Romance
DYEAR=2010
DGENRE=R&B
TTITLE0=Sad Piano (Intro)
TTITLE1=Last Romance
TTITLE2=발신번호표시제한 feat. 란
TTITLE3=사랑인지
TTITLE4=이별이 사람하나 병신만드네
TTITLE5=이별후유증 feat.윤화재인
TTITLE6=Never Change
TTITLE7=풍경 (Interlude)
TTITLE8=가로수 길을 걸으며
TTITLE9=트라우마 feat.예인
TTITLE10=한 여름날의 이별
TTITLE11=눈물도 안나 feat.차수경
TTITLE12=마음을 다한 사랑 feat.김동희
TTITLE13=이별이 사람하나 병신만드네 (Piano ver.)
TTITLE14=No More (Outro)
EXTD=
EXTT0=
EXTT1=
EXTT2=
EXTT3=
EXTT4=
EXTT5=
EXTT6=
EXTT7=
EXTT8=
EXTT9=
EXTT10=
EXTT11=
EXTT12=
EXTT13=
EXTT14=
PLAYORDER=
